<svg xmlns="http://www.w3.org/2000/svg" xmlns:xlink="http://www.w3.org/1999/xlink" width="700" zoomAndPan="magnify" viewBox="0 0 525 525.000007" height="700" preserveAspectRatio="xMidYMid meet" version="1.0"><defs><g/></defs><g fill="#ffffff" fill-opacity="1"><g transform="translate(5.814932, 322.611621)"><g><path d="M 14.234375 -78.300781 L 14.234375 -72.476562 L 98.574219 -23.078125 L 104.183594 -31.707031 L 28.042969 -75.28125 L 104.183594 -119.066406 L 98.144531 -127.265625 Z M 14.234375 -78.300781 "/></g></g></g><g fill="#ffffff" fill-opacity="1"><g transform="translate(124.234924, 322.611621)"><g><path d="M 78.515625 -118.636719 C 60.394531 -118.636719 42.925781 -111.085938 32.355469 -95.988281 L 32.355469 -159.1875 L 15.960938 -159.1875 L 15.960938 -59.535156 C 15.960938 -23.296875 41.628906 2.15625 77.222656 2.15625 C 113.027344 2.15625 138.910156 -23.511719 138.910156 -58.671875 C 138.910156 -93.398438 113.027344 -118.636719 78.515625 -118.636719 Z M 77.4375 -12.726562 C 51.335938 -12.726562 32.355469 -31.492188 32.355469 -58.457031 C 32.355469 -85.417969 51.121094 -103.96875 77.222656 -103.96875 C 103.535156 -103.96875 122.519531 -85.417969 122.519531 -58.457031 C 122.519531 -31.492188 103.753906 -12.726562 77.4375 -12.726562 Z M 77.4375 -12.726562 "/></g></g></g><g fill="#ffffff" fill-opacity="1"><g transform="translate(274.363022, 322.611621)"><g><path d="M 17.039062 -150.992188 L 17.039062 -136.109375 L 88.222656 -136.109375 L 88.222656 -53.277344 C 88.222656 -29.121094 74.203125 -13.375 51.984375 -13.375 C 35.804688 -13.375 22 -22.21875 14.019531 -34.945312 L 3.019531 -25.019531 C 12.726562 -8.628906 31.277344 2.15625 52.847656 2.15625 C 83.90625 2.15625 104.398438 -19.84375 104.398438 -53.277344 L 104.398438 -136.109375 L 121.222656 -136.109375 L 121.222656 -150.992188 Z M 17.039062 -150.992188 "/></g></g></g><g fill="#ffffff" fill-opacity="1"><g transform="translate(400.763947, 322.611621)"><g><path d="M 104.183594 -72.691406 L 104.183594 -78.515625 L 19.84375 -127.910156 L 14.234375 -119.28125 L 90.378906 -75.710938 L 14.234375 -31.925781 L 20.277344 -23.726562 Z M 104.183594 -72.691406 "/></g></g></g></svg>