<svg xmlns="http://www.w3.org/2000/svg" width="512" height="512" id="ethereum"><g fill-rule="evenodd" clip-rule="evenodd"><path fill="#009FBE" d="m276.324 19.016 175.003 99.66c14.228 8.166 20.324 22.394 20.324 36.62v201.39c0 16.329-10.162 30.557-22.356 36.655L276.324 493c-12.195 8.131-28.454 8.131-40.684 0L60.708 391.309c-12.195-6.099-20.36-20.326-20.36-34.623v-201.39c0-16.26 10.197-30.486 24.424-36.62l170.868-99.66c14.263-8.131 28.489-8.131 40.684 0z"></path><path fill="#D1D2D4" d="m276.324 19.016 77.305 44.749v20.359c0 132.216-105.758 238.01-238.01 238.01-26.421 0-50.847-4.065-75.271-12.195V155.295c0-16.26 10.197-30.486 24.424-36.62l170.868-99.66c14.263-8.13 28.489-8.13 40.684.001z" opacity=".7"></path><path fill="#B2B2B2" d="m159.179 234.521 96.62-39.529 93.709 40.471L255.705 91.99l-96.526 142.531zm.375 43.755 96.433 54.273 98.402-54.273-97.558 131.734-97.277-131.734zm96.714-63.94 97.84 42.255-97.84 53.05-100.657-54.272 100.657-41.033z"></path><path fill="#FFF" d="m160.179 229.521 96.62-39.529 93.709 40.471L256.705 86.99l-96.526 142.531zm.375 43.755 96.433 54.273 98.402-54.273-97.558 131.734-97.277-131.734zm96.714-63.94 97.84 42.255-97.84 53.05-100.657-54.272 100.657-41.033z"></path><path fill="#FFF" d="m160.179 230.521 96.62-39.529 93.709 40.471L256.705 87.99l-96.526 142.531zm.375 43.755 96.433 54.273 98.402-54.273-97.558 131.734-97.277-131.734zm96.714-63.94 97.84 42.255-97.84 53.05-100.657-54.272 100.657-41.033z"></path></g></svg>